<svg version="1.1" viewBox="0.0 0.0 426.21522309711287 426.21522309711287" fill="none" stroke="none" stroke-linecap="square" stroke-miterlimit="10" xmlns:xlink="http://www.w3.org/1999/xlink" xmlns="http://www.w3.org/2000/svg"><clipPath id="p.0"><path d="m0 0l426.2152 0l0 426.2152l-426.2152 0l0 -426.2152z" clip-rule="nonzero"/></clipPath><g clip-path="url(#p.0)"><path fill="#000000" fill-opacity="0.0" d="m0 0l426.2152 0l0 426.2152l-426.2152 0z" fill-rule="evenodd"/><path fill="#000000" d="m223.61154 47.721786l0 0c0 -9.462769 7.671097 -17.13386 17.133865 -17.13386l0 0c4.544174 0 8.902252 1.80517 12.115463 5.0183887c3.2132263 3.2132225 5.018402 7.571289 5.018402 12.115471l0 0c0 9.462769 -7.671097 17.133858 -17.133865 17.133858l0 0c-9.462769 0 -17.133865 -7.671089 -17.133865 -17.133858z" fill-rule="evenodd"/><path stroke="#000000" stroke-width="1.0" stroke-linejoin="round" stroke-linecap="butt" d="m223.61154 47.721786l0 0c0 -9.462769 7.671097 -17.13386 17.133865 -17.13386l0 0c4.544174 0 8.902252 1.80517 12.115463 5.0183887c3.2132263 3.2132225 5.018402 7.571289 5.018402 12.115471l0 0c0 9.462769 -7.671097 17.133858 -17.133865 17.133858l0 0c-9.462769 0 -17.133865 -7.671089 -17.133865 -17.133858z" fill-rule="evenodd"/><path fill="#ff0000" d="m122.35433 165.78477l0 0c0 -9.462769 7.671089 -17.13385 17.133858 -17.13385l0 0c4.544174 0 8.902252 1.8051605 12.115463 5.018387c3.2132263 3.2132263 5.018387 7.571289 5.018387 12.115463l0 0c0 9.462769 -7.6710815 17.133865 -17.13385 17.133865l0 0c-9.462769 0 -17.133858 -7.671097 -17.133858 -17.133865z" fill-rule="evenodd"/><path stroke="#ff0000" stroke-width="1.0" stroke-linejoin="round" stroke-linecap="butt" d="m122.35433 165.78477l0 0c0 -9.462769 7.671089 -17.13385 17.133858 -17.13385l0 0c4.544174 0 8.902252 1.8051605 12.115463 5.018387c3.2132263 3.2132263 5.018387 7.571289 5.018387 12.115463l0 0c0 9.462769 -7.6710815 17.133865 -17.13385 17.133865l0 0c-9.462769 0 -17.133858 -7.671097 -17.133858 -17.133865z" fill-rule="evenodd"/><path fill="#000000" d="m280.5866 183.58267l49.543304 0l0 28.125992l-49.543304 0z" fill-rule="evenodd"/><path stroke="#000000" stroke-width="1.0" stroke-linejoin="round" stroke-linecap="butt" d="m280.5866 183.58267l49.543304 0l0 28.125992l-49.543304 0z" fill-rule="evenodd"/><path fill="#ffffff" d="m290.80536 203.50568l0 -11.453125l1.5625 0l6.015625 8.984375l0 -8.984375l1.453125 0l0 11.453125l-1.5625 0l-6.015625 -9.0l0 9.0l-1.453125 0zm11.8359375 0l0 -11.453125l1.515625 0l0 11.453125l-1.515625 0zm4.1171875 0l0 -11.453125l1.515625 0l0 10.09375l5.640625 0l0 1.359375l-7.15625 0z" fill-rule="nonzero"/><path fill="#000000" fill-opacity="0.0" d="m240.7454 64.855644l-101.25984 83.81103" fill-rule="evenodd"/><path stroke="#000000" stroke-width="1.0" stroke-linejoin="round" stroke-linecap="butt" d="m240.7454 64.855644l-101.25984 83.81103" fill-rule="evenodd"/><path fill="#000000" d="m319.7362 136.99213l0 0c0 -9.462769 7.671112 -17.133858 17.13388 -17.133858l0 0c4.544159 0 8.902252 1.8051682 12.115448 5.018387c3.2132263 3.2132187 5.018402 7.5712814 5.018402 12.115471l0 0c0 9.462769 -7.6710815 17.133865 -17.13385 17.133865l0 0c-9.462769 0 -17.13388 -7.671097 -17.13388 -17.133865z" fill-rule="evenodd"/><path stroke="#000000" stroke-width="1.0" stroke-linejoin="round" stroke-linecap="butt" d="m319.7362 136.99213l0 0c0 -9.462769 7.671112 -17.133858 17.13388 -17.133858l0 0c4.544159 0 8.902252 1.8051682 12.115448 5.018387c3.2132263 3.2132187 5.018402 7.5712814 5.018402 12.115471l0 0c0 9.462769 -7.6710815 17.133865 -17.13385 17.133865l0 0c-9.462769 0 -17.13388 -7.671097 -17.13388 -17.133865z" fill-rule="evenodd"/><path fill="#000000" fill-opacity="0.0" d="m240.7454 64.855644l96.12599 54.992126" fill-rule="evenodd"/><path stroke="#000000" stroke-width="1.0" stroke-linejoin="round" stroke-linecap="butt" d="m240.7454 64.855644l96.12599 54.992126" fill-rule="evenodd"/><path fill="#000000" d="m61.879265 250.29659l0 0c0 -9.462769 7.671089 -17.13385 17.133858 -17.13385l0 0c4.544182 0 8.902245 1.8051605 12.115471 5.018387c3.2132187 3.2132263 5.018387 7.571289 5.018387 12.115463l0 0c0 9.462784 -7.671089 17.133865 -17.133858 17.133865l0 0c-9.462769 0 -17.133858 -7.6710815 -17.133858 -17.133865z" fill-rule="evenodd"/><path stroke="#000000" stroke-width="1.0" stroke-linejoin="round" stroke-linecap="butt" d="m61.879265 250.29659l0 0c0 -9.462769 7.671089 -17.13385 17.133858 -17.13385l0 0c4.544182 0 8.902245 1.8051605 12.115471 5.018387c3.2132187 3.2132263 5.018387 7.571289 5.018387 12.115463l0 0c0 9.462784 -7.671089 17.133865 -17.133858 17.133865l0 0c-9.462769 0 -17.133858 -7.6710815 -17.133858 -17.133865z" fill-rule="evenodd"/><path fill="#000000" d="m213.54855 250.29659l0 0c0 -9.462769 7.671097 -17.13385 17.133865 -17.13385l0 0c4.544174 0 8.902237 1.8051605 12.115463 5.018387c3.2132263 3.2132263 5.018387 7.571289 5.018387 12.115463l0 0c0 9.462784 -7.6710815 17.133865 -17.13385 17.133865l0 0c-9.462769 0 -17.133865 -7.6710815 -17.133865 -17.133865z" fill-rule="evenodd"/><path stroke="#000000" stroke-width="1.0" stroke-linejoin="round" stroke-linecap="butt" d="m213.54855 250.29659l0 0c0 -9.462769 7.671097 -17.13385 17.133865 -17.13385l0 0c4.544174 0 8.902237 1.8051605 12.115463 5.018387c3.2132263 3.2132263 5.018387 7.571289 5.018387 12.115463l0 0c0 9.462784 -7.6710815 17.133865 -17.13385 17.133865l0 0c-9.462769 0 -17.133865 -7.6710815 -17.133865 -17.133865z" fill-rule="evenodd"/><path fill="#000000" d="m12.3359585 301.67453l49.543304 0l0 28.126007l-49.543304 0z" fill-rule="evenodd"/><path stroke="#000000" stroke-width="1.0" stroke-linejoin="round" stroke-linecap="butt" d="m12.3359585 301.67453l49.543304 0l0 28.126007l-49.543304 0z" fill-rule="evenodd"/><path fill="#ffffff" d="m22.554708 321.59753l0 -11.453125l1.5625 0l6.015625 8.984375l0 -8.984375l1.453125 0l0 11.453125l-1.5625 0l-6.015625 -9.0l0 9.0l-1.453125 0zm11.835936 0l0 -11.453125l1.515625 0l0 11.453125l-1.515625 0zm4.1171875 0l0 -11.453125l1.515625 0l0 10.09375l5.640625 0l0 1.359375l-7.15625 0z" fill-rule="nonzero"/><path fill="#000000" d="m82.16798 301.67453l49.543312 0l0 28.126007l-49.543312 0z" fill-rule="evenodd"/><path stroke="#000000" stroke-width="1.0" stroke-linejoin="round" stroke-linecap="butt" d="m82.16798 301.67453l49.543312 0l0 28.126007l-49.543312 0z" fill-rule="evenodd"/><path fill="#ffffff" d="m92.38673 321.59753l0 -11.453125l1.5625 0l6.015625 8.984375l0 -8.984375l1.453125 0l0 11.453125l-1.5625 0l-6.015625 -9.0l0 9.0l-1.453125 0zm11.8359375 0l0 -11.453125l1.515625 0l0 11.453125l-1.515625 0zm4.1171875 0l0 -11.453125l1.515625 0l0 10.09375l5.640625 0l0 1.359375l-7.15625 0z" fill-rule="nonzero"/><path fill="#ff0000" d="m151.68242 315.73752l0 0c0 -9.462769 7.6710815 -17.13385 17.13385 -17.13385l0 0c4.5441895 0 8.902252 1.8051758 12.1154785 5.018402c3.213211 3.2132263 5.018387 7.571289 5.018387 12.115448l0 0c0 9.462769 -7.671097 17.13388 -17.133865 17.13388l0 0c-9.462769 0 -17.13385 -7.671112 -17.13385 -17.13388z" fill-rule="evenodd"/><path stroke="#ff0000" stroke-width="1.0" stroke-linejoin="round" stroke-linecap="butt" d="m151.68242 315.73752l0 0c0 -9.462769 7.6710815 -17.13385 17.13385 -17.13385l0 0c4.5441895 0 8.902252 1.8051758 12.1154785 5.018402c3.213211 3.2132263 5.018387 7.571289 5.018387 12.115448l0 0c0 9.462769 -7.671097 17.13388 -17.133865 17.13388l0 0c-9.462769 0 -17.13385 -7.671112 -17.13385 -17.13388z" fill-rule="evenodd"/><path fill="#ff0000" d="m271.67453 315.73752l0 0c0 -9.462769 7.671112 -17.13385 17.13388 -17.13385l0 0c4.544159 0 8.902222 1.8051758 12.115448 5.018402c3.2132263 3.2132263 5.018402 7.571289 5.018402 12.115448l0 0c0 9.462769 -7.6710815 17.13388 -17.13385 17.13388l0 0c-9.462769 0 -17.13388 -7.671112 -17.13388 -17.13388z" fill-rule="evenodd"/><path stroke="#ff0000" stroke-width="1.0" stroke-linejoin="round" stroke-linecap="butt" d="m271.67453 315.73752l0 0c0 -9.462769 7.671112 -17.13385 17.13388 -17.13385l0 0c4.544159 0 8.902222 1.8051758 12.115448 5.018402c3.2132263 3.2132263 5.018402 7.571289 5.018402 12.115448l0 0c0 9.462769 -7.6710815 17.13388 -17.13385 17.13388l0 0c-9.462769 0 -17.13388 -7.671112 -17.13388 -17.13388z" fill-rule="evenodd"/><path fill="#000000" d="m106.09974 376.3071l49.543312 0l0 28.125977l-49.543312 0z" fill-rule="evenodd"/><path stroke="#000000" stroke-width="1.0" stroke-linejoin="round" stroke-linecap="butt" d="m106.09974 376.3071l49.543312 0l0 28.125977l-49.543312 0z" fill-rule="evenodd"/><path fill="#ffffff" d="m116.31849 396.23007l0 -11.453125l1.5625 0l6.015625 8.984375l0 -8.984375l1.453125 0l0 11.453125l-1.5625 0l-6.015625 -9.0l0 9.0l-1.453125 0zm11.83593 0l0 -11.453125l1.515625 0l0 11.453125l-1.515625 0zm4.1171875 0l0 -11.453125l1.515625 0l0 10.09375l5.640625 0l0 1.359375l-7.15625 0z" fill-rule="nonzero"/><path fill="#000000" d="m180.60367 376.3071l49.54332 0l0 28.125977l-49.54332 0z" fill-rule="evenodd"/><path stroke="#000000" stroke-width="1.0" stroke-linejoin="round" stroke-linecap="butt" d="m180.60367 376.3071l49.54332 0l0 28.125977l-49.54332 0z" fill-rule="evenodd"/><path fill="#ffffff" d="m190.82242 396.23007l0 -11.453125l1.5625 0l6.015625 8.984375l0 -8.984375l1.453125 0l0 11.453125l-1.5625 0l-6.015625 -9.0l0 9.0l-1.453125 0zm11.8359375 0l0 -11.453125l1.515625 0l0 11.453125l-1.515625 0zm4.1171875 0l0 -11.453125l1.515625 0l0 10.09375l5.640625 0l0 1.359375l-7.15625 0z" fill-rule="nonzero"/><path fill="#000000" d="m245.59973 376.3071l49.543304 0l0 28.125977l-49.543304 0z" fill-rule="evenodd"/><path stroke="#000000" stroke-width="1.0" stroke-linejoin="round" stroke-linecap="butt" d="m245.59973 376.3071l49.543304 0l0 28.125977l-49.543304 0z" fill-rule="evenodd"/><path fill="#ffffff" d="m255.81848 396.23007l0 -11.453125l1.5625 0l6.015625 8.984375l0 -8.984375l1.453125 0l0 11.453125l-1.5625 0l-6.015625 -9.0l0 9.0l-1.453125 0zm11.8359375 0l0 -11.453125l1.515625 0l0 11.453125l-1.515625 0zm4.1171875 0l0 -11.453125l1.515625 0l0 10.09375l5.640625 0l0 1.359375l-7.15625 0z" fill-rule="nonzero"/><path fill="#000000" d="m325.85565 376.31235l49.543304 0l0 28.125977l-49.543304 0z" fill-rule="evenodd"/><path stroke="#000000" stroke-width="1.0" stroke-linejoin="round" stroke-linecap="butt" d="m325.85565 376.31235l49.543304 0l0 28.125977l-49.543304 0z" fill-rule="evenodd"/><path fill="#ffffff" d="m336.0744 396.23532l0 -11.453125l1.5625 0l6.015625 8.984375l0 -8.984375l1.453125 0l0 11.453125l-1.5625 0l-6.015625 -9.0l0 9.0l-1.453125 0zm11.8359375 0l0 -11.453125l1.515625 0l0 11.453125l-1.515625 0zm4.1171875 0l0 -11.453125l1.515625 0l0 10.09375l5.640625 0l0 1.359375l-7.15625 0z" fill-rule="nonzero"/><path fill="#000000" fill-opacity="0.0" d="m139.48819 182.91864l-60.472443 50.23622" fill-rule="evenodd"/><path stroke="#000000" stroke-width="1.0" stroke-linejoin="round" stroke-linecap="butt" d="m139.48819 182.91864l-60.472443 50.23622" fill-rule="evenodd"/><path fill="#000000" fill-opacity="0.0" d="m139.48819 182.91864l91.18111 50.23622" fill-rule="evenodd"/><path stroke="#000000" stroke-width="1.0" stroke-linejoin="round" stroke-linecap="butt" d="m139.48819 182.91864l91.18111 50.23622" fill-rule="evenodd"/><path fill="#000000" fill-opacity="0.0" d="m79.01312 267.43045l-41.889763 34.236206" fill-rule="evenodd"/><path stroke="#000000" stroke-width="1.0" stroke-linejoin="round" stroke-linecap="butt" d="m79.01312 267.43045l-41.889763 34.236206" fill-rule="evenodd"/><path fill="#000000" fill-opacity="0.0" d="m79.01312 267.43045l27.937012 34.236206" fill-rule="evenodd"/><path stroke="#000000" stroke-width="1.0" stroke-linejoin="round" stroke-linecap="butt" d="m79.01312 267.43045l27.937012 34.236206" fill-rule="evenodd"/><path fill="#000000" fill-opacity="0.0" d="m230.68242 267.43045l-61.858276 31.181091" fill-rule="evenodd"/><path stroke="#000000" stroke-width="1.0" stroke-linejoin="round" stroke-linecap="butt" d="m230.68242 267.43045l-61.858276 31.181091" fill-rule="evenodd"/><path fill="#000000" fill-opacity="0.0" d="m168.81627 332.8714l-37.95276 43.433075" fill-rule="evenodd"/><path stroke="#000000" stroke-width="1.0" stroke-linejoin="round" stroke-linecap="butt" d="m168.81627 332.8714l-37.95276 43.433075" fill-rule="evenodd"/><path fill="#000000" fill-opacity="0.0" d="m168.81627 332.8714l36.56694 43.433075" fill-rule="evenodd"/><path stroke="#000000" stroke-width="1.0" stroke-linejoin="round" stroke-linecap="butt" d="m168.81627 332.8714l36.56694 43.433075" fill-rule="evenodd"/><path fill="#000000" fill-opacity="0.0" d="m288.8084 332.8714l-18.425201 43.433075" fill-rule="evenodd"/><path stroke="#000000" stroke-width="1.0" stroke-linejoin="round" stroke-linecap="butt" d="m288.8084 332.8714l-18.425201 43.433075" fill-rule="evenodd"/><path fill="#000000" fill-opacity="0.0" d="m288.8084 332.8714l61.82675 43.433075" fill-rule="evenodd"/><path stroke="#000000" stroke-width="1.0" stroke-linejoin="round" stroke-linecap="butt" d="m288.8084 332.8714l61.82675 43.433075" fill-rule="evenodd"/><path fill="#000000" fill-opacity="0.0" d="m230.68242 267.43045l58.14174 31.181091" fill-rule="evenodd"/><path stroke="#000000" stroke-width="1.0" stroke-linejoin="round" stroke-linecap="butt" d="m230.68242 267.43045l58.14174 31.181091" fill-rule="evenodd"/><path fill="#000000" d="m346.09842 183.58267l49.543304 0l0 28.125992l-49.543304 0z" fill-rule="evenodd"/><path stroke="#000000" stroke-width="1.0" stroke-linejoin="round" stroke-linecap="butt" d="m346.09842 183.58267l49.543304 0l0 28.125992l-49.543304 0z" fill-rule="evenodd"/><path fill="#ffffff" d="m356.31717 203.50568l0 -11.453125l1.5625 0l6.015625 8.984375l0 -8.984375l1.453125 0l0 11.453125l-1.5625 0l-6.015625 -9.0l0 9.0l-1.453125 0zm11.8359375 0l0 -11.453125l1.515625 0l0 11.453125l-1.515625 0zm4.1171875 0l0 -11.453125l1.515625 0l0 10.09375l5.640625 0l0 1.359375l-7.15625 0z" fill-rule="nonzero"/><path fill="#000000" fill-opacity="0.0" d="m336.8701 154.12599l-31.496063 29.448807" fill-rule="evenodd"/><path stroke="#000000" stroke-width="1.0" stroke-linejoin="round" stroke-linecap="butt" d="m336.8701 154.12599l-31.496063 29.448807" fill-rule="evenodd"/><path fill="#000000" fill-opacity="0.0" d="m336.8701 154.12599l34.015747 29.448807" fill-rule="evenodd"/><path stroke="#000000" stroke-width="1.0" stroke-linejoin="round" stroke-linecap="butt" d="m336.8701 154.12599l34.015747 29.448807" fill-rule="evenodd"/></g></svg>